<svg width="16" height="17" viewBox="0 0 16 17" fill="none" xmlns="http://www.w3.org/2000/svg">
<path fill-rule="evenodd" clip-rule="evenodd" d="M7.99967 3.16659C5.05416 3.16659 2.66634 5.5544 2.66634 8.49992C2.66634 11.4454 5.05416 13.8333 7.99967 13.8333C10.9452 13.8333 13.333 11.4454 13.333 8.49992C13.333 5.5544 10.9452 3.16659 7.99967 3.16659ZM1.33301 8.49992C1.33301 4.81802 4.31778 1.83325 7.99967 1.83325C11.6816 1.83325 14.6663 4.81802 14.6663 8.49992C14.6663 12.1818 11.6816 15.1666 7.99967 15.1666C4.31778 15.1666 1.33301 12.1818 1.33301 8.49992Z" fill="#F02746"/>
<path fill-rule="evenodd" clip-rule="evenodd" d="M7.2998 10.8C7.2998 10.4318 7.59828 10.1333 7.96647 10.1333H8.03314C8.40133 10.1333 8.6998 10.4318 8.6998 10.8V10.8666C8.6998 11.2348 8.40133 11.5333 8.03314 11.5333H7.96647C7.59828 11.5333 7.2998 11.2348 7.2998 10.8666V10.8Z" fill="#F02746"/>
<path fill-rule="evenodd" clip-rule="evenodd" d="M8.66634 5.46655V9.46655H7.33301V5.46655H8.66634Z" fill="#F02746"/>
</svg>
