<svg width="19" height="18" viewBox="0 0 19 18" fill="none" xmlns="http://www.w3.org/2000/svg">
<g clip-path="url(#clip0_1141_4439)">
<path fill-rule="evenodd" clip-rule="evenodd" d="M18.5004 9.20434C18.5011 8.58683 18.4453 7.9705 18.3334 7.36279H9.68164V10.8441H14.6244C14.5218 11.3942 14.3065 11.9182 13.9916 12.3845C13.6767 12.8508 13.2686 13.2497 12.7919 13.5572V15.8159H15.7595C17.4959 14.2491 18.4978 11.9412 18.4978 9.20264L18.5004 9.20434Z" fill="#3E82F1"/>
<path fill-rule="evenodd" clip-rule="evenodd" d="M9.68363 17.9991C12.1632 17.9991 14.2422 17.1936 15.7615 15.8193L12.7939 13.5606C11.9712 14.1007 10.9191 14.4203 9.68363 14.4203C7.29142 14.4203 5.2669 12.8365 4.54535 10.7092H1.47656V13.0417C2.24102 14.5324 3.41339 15.7856 4.86269 16.661C6.31199 17.5364 7.98113 17.9997 9.68363 17.9991Z" fill="#32A753"/>
<path fill-rule="evenodd" clip-rule="evenodd" d="M4.54551 10.7093C4.16138 9.60054 4.16138 8.39857 4.54551 7.28985V4.9574H1.47673C0.834455 6.21188 0.5 7.59602 0.5 8.99955C0.5 10.4031 0.834455 11.7872 1.47673 13.0417L4.54551 10.7093Z" fill="#F9BB00"/>
<path fill-rule="evenodd" clip-rule="evenodd" d="M9.68385 3.5788C11.0327 3.5788 12.243 4.03325 13.1947 4.9252L15.8283 2.34348C14.2381 0.891099 12.1591 6.22621e-07 9.68558 6.22621e-07C7.98308 -0.000619949 6.31394 0.462668 4.86464 1.33811C3.41534 2.21355 2.24297 3.46665 1.47852 4.95742L4.5473 7.28987C5.26886 5.1626 7.29337 3.5788 9.68558 3.5788H9.68385Z" fill="#E74133"/>
</g>
<defs>
<clipPath id="clip0_1141_4439">
<rect width="18" height="18" fill="white" transform="translate(0.5)"/>
</clipPath>
</defs>
</svg>
