<svg xmlns="http://www.w3.org/2000/svg" width="48" height="48" viewBox="0 0 48 48" fill="none">
<path fill-rule="evenodd" clip-rule="evenodd" d="M26.9543 6.90526C28.8403 5.08368 31.3663 4.07574 33.9883 4.09852C36.6102 4.12131 39.1184 5.173 40.9724 7.02708C42.8265 8.88116 43.8782 11.3893 43.901 14.0113C43.9238 16.6332 42.9158 19.1592 41.0942 21.0453L41.0699 21.0701L33.0699 29.0701C31.1946 30.9448 28.6513 31.9981 25.9997 31.9981C23.348 31.9981 20.805 30.945 18.9297 29.0703C18.1485 28.2893 18.1483 27.023 18.9292 26.2418C19.7102 25.4607 20.9765 25.4605 21.7577 26.2414C22.8828 27.3662 24.4087 27.9981 25.9997 27.9981C27.5906 27.9981 29.1163 27.3663 30.2415 26.2416C30.2415 26.2416 30.2414 26.2417 30.2415 26.2416L38.2283 18.2547C39.3142 17.1244 39.9148 15.6138 39.9011 14.046C39.8875 12.4728 39.2565 10.968 38.144 9.8555C37.0316 8.74306 35.5267 8.11204 33.9535 8.09837C32.3857 8.08475 30.8751 8.68534 29.7447 9.77122L27.5579 11.9581C26.7768 12.7391 25.5105 12.7391 24.7295 11.9581C23.9484 11.177 23.9484 9.91067 24.7295 9.12963L26.9295 6.92963L26.9543 6.90526ZM14.9297 18.9294C16.805 17.0547 19.348 16.0015 21.9997 16.0015C24.6513 16.0015 27.1944 17.0547 29.0697 18.9294C29.8508 19.7103 29.851 20.9767 29.0701 21.7578C28.2892 22.539 27.0228 22.5392 26.2417 21.7583C25.1165 20.6334 23.5907 20.0015 21.9997 20.0015C20.4088 20.0015 18.883 20.6334 17.7579 21.7581C17.7578 21.7581 17.758 21.758 17.7579 21.7581L9.75789 29.7581L9.7331 29.7824C9.16004 30.3359 8.70294 30.998 8.38849 31.73C8.07403 32.462 7.90852 33.2493 7.90159 34.046C7.89467 34.8427 8.04648 35.6328 8.34817 36.3701C8.64985 37.1075 9.09537 37.7774 9.65873 38.3408C10.2221 38.9041 10.892 39.3497 11.6294 39.6513C12.3667 39.953 13.1568 40.1048 13.9535 40.0979C14.7502 40.091 15.5375 39.9255 16.2695 39.611C17.0015 39.2966 17.6636 38.8395 18.2171 38.2664L18.2421 38.241L20.4461 36.039C21.2275 35.2583 22.4938 35.2589 23.2745 36.0403C24.0552 36.8217 24.0546 38.088 23.2732 38.8687L21.0811 41.0588C20.1613 42.0076 19.0626 42.7647 17.8483 43.2863C16.6283 43.8104 15.3161 44.0862 13.9883 44.0978C12.6605 44.1093 11.3437 43.8563 10.1147 43.3535C8.88575 42.8507 7.76923 42.1081 6.8303 41.1692C5.89137 40.2303 5.14884 39.1138 4.64603 37.8848C4.14322 36.6558 3.89021 35.339 3.90174 34.0113C3.91328 32.6835 4.18915 31.3713 4.71324 30.1512C5.23491 28.9368 5.99213 27.8379 6.94106 26.918L14.9297 18.9294Z" fill="#18181B"/>
</svg>