<svg width="16" height="16" viewBox="0 0 16 16" fill="none" xmlns="http://www.w3.org/2000/svg">
<path fill-rule="evenodd" clip-rule="evenodd" d="M7.99935 6.00033C6.89478 6.00033 5.99935 6.89576 5.99935 8.00033C5.99935 9.10489 6.89478 10.0003 7.99935 10.0003C9.10392 10.0003 9.99935 9.10489 9.99935 8.00033C9.99935 6.89576 9.10392 6.00033 7.99935 6.00033ZM4.66602 8.00033C4.66602 6.15938 6.1584 4.66699 7.99935 4.66699C9.8403 4.66699 11.3327 6.15938 11.3327 8.00033C11.3327 9.84127 9.8403 11.3337 7.99935 11.3337C6.1584 11.3337 4.66602 9.84127 4.66602 8.00033Z" fill="#1B202C"/>
<path fill-rule="evenodd" clip-rule="evenodd" d="M5.24082 1.12058C5.6608 0.876834 6.18008 0.880677 6.5964 1.13061L7.61378 1.7414C7.71743 1.80362 7.83604 1.83649 7.95693 1.83649H8.04473C8.16535 1.83649 8.28372 1.80376 8.38721 1.74179L9.39993 1.1354L9.73945 1.70244L9.39993 1.1354C9.8148 0.886992 10.3316 0.882666 10.7506 1.1241L10.4177 1.70172L10.7506 1.1241L12.575 2.17543C12.9951 2.41747 13.2506 2.86841 13.2425 3.35311L13.2225 4.53899C13.2205 4.65986 13.2514 4.779 13.3118 4.88367L13.3557 4.95958C13.416 5.06398 13.5035 5.15008 13.6088 5.2087L13.2848 5.79128L13.6088 5.2087L14.6429 5.78397C15.0649 6.01871 15.327 6.46325 15.3281 6.94612L15.3328 9.04733C15.334 9.53314 15.0707 9.98111 14.6458 10.2166L13.6092 10.791C13.5034 10.8497 13.4156 10.936 13.3551 11.0407L13.3118 11.1156L12.7345 10.7821L13.3118 11.1156C13.2514 11.2202 13.2205 11.3394 13.2225 11.4603L13.2425 12.6475C13.2506 13.1307 12.9966 13.5805 12.5786 13.8231L10.76 14.8787C10.34 15.1224 9.82074 15.1186 9.40441 14.8686L8.38704 14.2578C8.28339 14.1956 8.16478 14.1628 8.04389 14.1628H7.95609C7.83547 14.1628 7.7171 14.1955 7.61361 14.2575L6.60089 14.8638C6.18602 15.1123 5.66918 15.1166 5.25022 14.8752L3.42579 13.8238C3.00575 13.5818 2.75018 13.1308 2.75836 12.6461L2.77832 11.464C2.78035 11.344 2.74995 11.2257 2.69034 11.1215L2.64399 11.0406C2.58364 10.9352 2.49565 10.8482 2.3895 10.7892L1.35788 10.2153C0.935918 9.98053 0.673842 9.536 0.672745 9.05313L0.667972 6.95192C0.666869 6.4661 0.930086 6.01814 1.35502 5.78266L2.39161 5.20821C2.4974 5.14959 2.58524 5.06329 2.64574 4.95856L3.22302 5.29202L2.64574 4.95856L2.689 4.88367C2.74946 4.779 2.78033 4.65986 2.77829 4.53899L2.75832 3.35172C2.75019 2.8685 3.00418 2.41871 3.42217 2.17611L5.24082 1.12058ZM5.91012 2.27376L4.09146 3.32929L4.11144 4.51656C4.11754 4.87915 4.02494 5.23658 3.84355 5.5506L3.31483 5.24518L3.84355 5.5506L3.80029 5.62548C3.6188 5.93967 3.35526 6.19857 3.03789 6.37444L2.0013 6.94889L2.00607 9.0501L3.03769 9.624C3.35614 9.80115 3.62013 10.0619 3.80116 10.3782L3.84751 10.4592C4.02635 10.7716 4.11754 11.1265 4.11146 11.4865L4.09151 12.6686L5.91593 13.7199L6.92865 13.1135C7.23913 12.9276 7.59422 12.8294 7.95609 12.8294H8.04389C8.40655 12.8294 8.76239 12.928 9.07333 13.1147L10.0907 13.7255L11.9094 12.67L11.8894 11.4827C11.8833 11.1201 11.9759 10.7627 12.1573 10.4487L12.2005 10.3738L12.7537 10.6933L12.2005 10.3738C12.382 10.0596 12.6456 9.80068 12.9629 9.6248L13.9995 9.05036L13.9947 6.94914L12.9607 6.37387C12.6445 6.19802 12.382 5.93972 12.2011 5.6265L12.7784 5.29304L12.2011 5.6265L12.1573 5.5506C11.9759 5.23658 11.8833 4.87915 11.8894 4.51656L11.9093 3.33068L10.0849 2.27935L9.07217 2.88574C8.76169 3.07164 8.4066 3.16982 8.04473 3.16982H7.95693C7.59426 3.16982 7.23843 3.07121 6.9275 2.88454L5.91012 2.27376Z" fill="#1B202C"/>
</svg>
