<svg xmlns="http://www.w3.org/2000/svg" width="48" height="48" viewBox="0 0 48 48" fill="none">
<path fill-rule="evenodd" clip-rule="evenodd" d="M36 32C33.7909 32 32 33.7909 32 36C32 38.2091 33.7909 40 36 40C38.2091 40 40 38.2091 40 36C40 33.7909 38.2091 32 36 32ZM28 36C28 31.5817 31.5817 28 36 28C40.4183 28 44 31.5817 44 36C44 40.4183 40.4183 44 36 44C31.5817 44 28 40.4183 28 36Z" fill="#1B202C"/>
<path fill-rule="evenodd" clip-rule="evenodd" d="M17.1053 24.3169L32.683 32.1057L30.8941 35.6835L15.3164 27.8946L17.1053 24.3169Z" fill="#1B202C"/>
<path fill-rule="evenodd" clip-rule="evenodd" d="M12 20C9.79086 20 8 21.7909 8 24C8 26.2091 9.79086 28 12 28C14.2091 28 16 26.2091 16 24C16 21.7909 14.2091 20 12 20ZM4 24C4 19.5817 7.58172 16 12 16C16.4183 16 20 19.5817 20 24C20 28.4183 16.4183 32 12 32C7.58172 32 4 28.4183 4 24Z" fill="#1B202C"/>
<path fill-rule="evenodd" clip-rule="evenodd" d="M32.683 15.8946L17.1053 23.6835L15.3164 20.1057L30.8941 12.3169L32.683 15.8946Z" fill="#1B202C"/>
<path fill-rule="evenodd" clip-rule="evenodd" d="M36 8C33.7909 8 32 9.79086 32 12C32 14.2091 33.7909 16 36 16C38.2091 16 40 14.2091 40 12C40 9.79086 38.2091 8 36 8ZM28 12C28 7.58172 31.5817 4 36 4C40.4183 4 44 7.58172 44 12C44 16.4183 40.4183 20 36 20C31.5817 20 28 16.4183 28 12Z" fill="#1B202C"/>
</svg>