<svg width="21" height="20" viewBox="0 0 21 20" fill="none" xmlns="http://www.w3.org/2000/svg">
<path fill-rule="evenodd" clip-rule="evenodd" d="M15.4993 13.3333C14.5789 13.3333 13.8327 14.0795 13.8327 15C13.8327 15.9204 14.5789 16.6666 15.4993 16.6666C16.4198 16.6666 17.166 15.9204 17.166 15C17.166 14.0795 16.4198 13.3333 15.4993 13.3333ZM12.166 15C12.166 13.159 13.6584 11.6666 15.4993 11.6666C17.3403 11.6666 18.8327 13.159 18.8327 15C18.8327 16.8409 17.3403 18.3333 15.4993 18.3333C13.6584 18.3333 12.166 16.8409 12.166 15Z" fill="#1B202C"/>
<path fill-rule="evenodd" clip-rule="evenodd" d="M7.62817 10.132L14.1189 13.3773L13.3735 14.868L6.88281 11.6227L7.62817 10.132Z" fill="#1B202C"/>
<path fill-rule="evenodd" clip-rule="evenodd" d="M5.49935 8.33329C4.57887 8.33329 3.83268 9.07948 3.83268 9.99996C3.83268 10.9204 4.57887 11.6666 5.49935 11.6666C6.41982 11.6666 7.16602 10.9204 7.16602 9.99996C7.16602 9.07948 6.41982 8.33329 5.49935 8.33329ZM2.16602 9.99996C2.16602 8.15901 3.6584 6.66663 5.49935 6.66663C7.3403 6.66663 8.83268 8.15901 8.83268 9.99996C8.83268 11.8409 7.3403 13.3333 5.49935 13.3333C3.6584 13.3333 2.16602 11.8409 2.16602 9.99996Z" fill="#1B202C"/>
<path fill-rule="evenodd" clip-rule="evenodd" d="M14.1189 6.62267L7.62817 9.86803L6.88281 8.37731L13.3735 5.13196L14.1189 6.62267Z" fill="#1B202C"/>
<path fill-rule="evenodd" clip-rule="evenodd" d="M15.4993 3.33329C14.5789 3.33329 13.8327 4.07948 13.8327 4.99996C13.8327 5.92043 14.5789 6.66663 15.4993 6.66663C16.4198 6.66663 17.166 5.92043 17.166 4.99996C17.166 4.07948 16.4198 3.33329 15.4993 3.33329ZM12.166 4.99996C12.166 3.15901 13.6584 1.66663 15.4993 1.66663C17.3403 1.66663 18.8327 3.15901 18.8327 4.99996C18.8327 6.84091 17.3403 8.33329 15.4993 8.33329C13.6584 8.33329 12.166 6.84091 12.166 4.99996Z" fill="#1B202C"/>
</svg>
