<svg xmlns="http://www.w3.org/2000/svg" width="48" height="48" viewBox="0 0 48 48" fill="none">
<path fill-rule="evenodd" clip-rule="evenodd" d="M24 8C15.1634 8 8 15.1634 8 24C8 32.8366 15.1634 40 24 40C32.8366 40 40 32.8366 40 24C40 15.1634 32.8366 8 24 8ZM4 24C4 12.9543 12.9543 4 24 4C35.0457 4 44 12.9543 44 24C44 35.0457 35.0457 44 24 44C12.9543 44 4 35.0457 4 24Z" fill="#1B202C"/>
<path fill-rule="evenodd" clip-rule="evenodd" d="M21.9004 30.8999C21.9004 29.7953 22.7958 28.8999 23.9004 28.8999H24.1004C25.205 28.8999 26.1004 29.7953 26.1004 30.8999V31.0999C26.1004 32.2045 25.205 33.0999 24.1004 33.0999H23.9004C22.7958 33.0999 21.9004 32.2045 21.9004 31.0999V30.8999Z" fill="#1B202C"/>
<path fill-rule="evenodd" clip-rule="evenodd" d="M26 14.8999V26.8999H22V14.8999H26Z" fill="#1B202C"/>
</svg>