<svg width="71" height="16" viewBox="0 0 71 16" fill="none" xmlns="http://www.w3.org/2000/svg">
<path d="M13.6629 7.46043H7.27366V10.1043H10.6307C10.0351 11.8849 7.81513 12.6043 6.91269 12.6043C4.62049 12.6043 2.70732 10.7698 2.70732 8.39568C2.70732 6.03957 4.62049 4.20504 6.91269 4.20504C9.31318 4.20504 10.4142 6.09353 10.4142 6.09353L12.8327 4.72662C12.8327 4.72662 11.2624 1.45324 6.93074 1.45324C2.86976 1.45324 0 4.52878 0 8.39568C0 12.2806 2.86976 15.3561 6.93074 15.3561C10.4142 15.3561 13.2298 12.7842 13.6449 9.43885C13.6449 9.43885 13.7351 7.92806 13.6629 7.46043Z" fill="#863EFC"/>
<path d="M22.0448 8.32374H17.8935V4.42086H22.0448C23.1096 4.42086 23.976 5.28417 23.976 6.34532C23.976 7.42446 23.1096 8.32374 22.0448 8.32374ZM15.2584 15.2122H17.8935V11.1115H20.9618L23.976 15.2122H27.3511L23.976 10.6259C25.3657 9.72662 26.5209 8.6295 26.7014 6.23741C26.7014 3.46763 24.8062 1.57914 22.4599 1.57914H15.2584V15.2122Z" fill="#863EFC"/>
<path d="M37.0215 1.57914H33.9712L28.2678 15.2122H31.1556L32.5273 11.8849H38.4654L39.8371 15.2122H42.7249L37.0215 1.57914ZM33.8449 8.82734L35.5054 4.85252L37.1478 8.82734H33.8449Z" fill="#863EFC"/>
<path d="M52.8497 1.57914H42.1648V4.27698H46.1536V15.2122H48.9331V4.27698H52.8497V1.57914Z" fill="#863EFC"/>
<path d="M65.6956 1.57914H53.6932V4.29496H61.5625L53.6932 12.6942V15.2122H65.6956V12.5144H57.6459L65.6956 4.11511V1.57914Z" fill="#863EFC"/>
<path d="M71 0.5H67.4263L67.9137 10.8597H70.5849L71 0.5ZM67.8776 15.5H70.621V12.8561H67.8776V15.5Z" fill="#863EFC"/>
</svg>
