<svg width="156" height="33" viewBox="0 0 156 33" fill="none" xmlns="http://www.w3.org/2000/svg">
<path d="M30.02 15.313H15.9816V21.1295H23.3577C22.049 25.0468 17.1713 26.6295 15.1884 26.6295C10.1521 26.6295 5.94848 22.5935 5.94848 17.3705C5.94848 12.187 10.1521 8.15108 15.1884 8.15108C20.4628 8.15108 22.8818 12.3058 22.8818 12.3058L28.1958 9.29856C28.1958 9.29856 24.7457 2.09712 15.2281 2.09712C6.30538 2.09712 0 8.86331 0 17.3705C0 25.9173 6.30538 32.6835 15.2281 32.6835C22.8818 32.6835 29.0682 27.0252 29.9803 19.6655C29.9803 19.6655 30.1786 16.3417 30.02 15.313Z" fill="white"/>
<path d="M48.4364 17.2122H39.3154V8.6259H48.4364C50.7761 8.6259 52.6796 10.5252 52.6796 12.8597C52.6796 15.2338 50.7761 17.2122 48.4364 17.2122ZM33.5255 32.3669H39.3154V23.3453H46.057L52.6796 32.3669H60.0954L52.6796 22.277C55.7332 20.2986 58.2712 17.8849 58.6678 12.6223C58.6678 6.52878 54.5038 2.3741 49.3485 2.3741H33.5255V32.3669Z" fill="white"/>
<path d="M81.3429 2.3741H74.641L62.1095 32.3669H68.4546L71.4684 25.0468H84.5154L87.5293 32.3669H93.8744L81.3429 2.3741ZM74.3634 18.3201L78.0118 9.57554L81.6205 18.3201H74.3634Z" fill="white"/>
<path d="M116.12 2.3741H92.6438V8.30935H101.408V32.3669H107.515V8.30935H116.12V2.3741Z" fill="white"/>
<path d="M144.345 2.3741H117.974V8.34892H135.264L117.974 26.8273V32.3669H144.345V26.4317H126.659L144.345 7.95324V2.3741Z" fill="white"/>
<path d="M156 0H148.148L149.219 22.7914H155.088L156 0ZM149.139 33H155.167V27.1835H149.139V33Z" fill="white"/>
</svg>
