<svg xmlns="http://www.w3.org/2000/svg" width="237" height="66" viewBox="0 0 237 66" fill="none">
<path d="M51.8186 31.285H32.3486V39.37H42.5786C40.7636 44.815 33.9986 47.015 31.2486 47.015C24.2636 47.015 18.4336 41.405 18.4336 34.145C18.4336 26.94 24.2636 21.33 31.2486 21.33C38.5636 21.33 41.9186 27.105 41.9186 27.105L49.2886 22.925C49.2886 22.925 44.5036 12.915 31.3036 12.915C18.9286 12.915 10.1836 22.32 10.1836 34.145C10.1836 46.025 18.9286 55.43 31.3036 55.43C41.9186 55.43 50.4986 47.565 51.7636 37.335C51.7636 37.335 52.0386 32.715 51.8186 31.285Z" fill="#863EFC"/>
<path d="M77.3605 33.925H64.7105V21.99H77.3605C80.6055 21.99 83.2455 24.63 83.2455 27.875C83.2455 31.175 80.6055 33.925 77.3605 33.925ZM56.6805 54.99H64.7105V42.45H74.0605L83.2455 54.99H93.5305L83.2455 40.965C87.4805 38.215 91.0005 34.86 91.5505 27.545C91.5505 19.075 85.7755 13.3 78.6255 13.3H56.6805V54.99Z" fill="#863EFC"/>
<path d="M122.999 13.3H113.704L96.3239 54.99H105.124L109.304 44.815H127.399L131.579 54.99H140.379L122.999 13.3ZM113.319 35.465L118.379 23.31L123.384 35.465H113.319Z" fill="#863EFC"/>
<path d="M171.232 13.3H138.672V21.55H150.827V54.99H159.297V21.55H171.232V13.3Z" fill="#863EFC"/>
<path d="M210.378 13.3H173.803V21.605H197.783L173.803 47.29V54.99H210.378V46.74H185.848L210.378 21.055V13.3Z" fill="#863EFC"/>
<path d="M226.542 10H215.652L217.137 41.68H225.277L226.542 10ZM217.027 55.87H225.387V47.785H217.027V55.87Z" fill="#863EFC"/>
</svg>